<svg xmlns="http://www.w3.org/2000/svg" viewBox="0 0 500 500"><g id="freepik--Floor--inject-40"><ellipse id="freepik--floor--inject-40" cx="250" cy="347.26" rx="237.07" ry="136.87" style="fill:#f5f5f5"></ellipse></g><g id="freepik--Shadows--inject-40"><polygon id="freepik--Shadow--inject-40" points="468.42 343.62 431.86 364.73 297.71 287.28 334.37 266.23 468.42 343.62" style="fill:#e0e0e0"></polygon><path id="freepik--shadow--inject-40" d="M100.5,339.22,57.58,314.48a1.1,1.1,0,0,1,0-2.09l106.08-61.47a4,4,0,0,1,3.61,0l42.92,24.74a1.1,1.1,0,0,1,0,2.09L104.11,339.21A4,4,0,0,1,100.5,339.22Z" style="fill:#e6e6e6"></path><path id="freepik--shadow--inject-40" d="M38.18,333.07c-10.67,6.23-10.67,16.32,0,22.55s28,6.23,38.63,0,10.67-16.32,0-22.55S48.85,326.84,38.18,333.07Z" style="fill:#e6e6e6"></path><ellipse id="freepik--shadow--inject-40" cx="244.46" cy="427.59" rx="68.52" ry="39.56" style="fill:#e0e0e0"></ellipse></g><g id="freepik--Pictures--inject-40"><g id="freepik--Picture--inject-40"><g id="freepik--Frame--inject-40"><polygon points="400.41 90.27 398.7 91.29 363.75 71.11 365.45 70.09 400.41 90.27" style="fill:#fafafa"></polygon><polygon points="365.45 70.09 398.7 89.28 398.7 54.46 365.45 35.28 365.45 70.09" style="fill:#fff"></polygon><path d="M360.53,73l41.39,23.89V52.61l-41.39-23.9Zm3.22-38.68L398.7,54.46V91.29l-35-20.18Z" style="fill:#f0f0f0"></path><polygon points="363.75 71.11 365.45 70.09 365.45 35.28 363.75 34.28 363.75 71.11" style="fill:#e0e0e0"></polygon><polygon points="360.53 28.71 362.26 27.72 403.65 51.62 401.92 52.61 360.53 28.71" style="fill:#fafafa"></polygon><polygon points="403.65 51.62 401.92 52.61 401.92 96.86 403.65 95.86 403.65 51.62" style="fill:#e0e0e0"></polygon></g><g id="freepik--Land--inject-40"><polygon points="366.75 69.05 397.41 86.75 397.41 77.9 389.74 60.2 384.97 64.62 386.69 72.04 376.1 49.4 366.75 60.2 366.75 69.05" style="fill:#f0f0f0"></polygon><path d="M385.26,51.65a5,5,0,0,1,2.26,3.93c0,1.45-1,2-2.26,1.31A5,5,0,0,1,383,53C383,51.52,384,50.93,385.26,51.65Z" style="fill:#f0f0f0"></path></g></g><g id="freepik--picture--inject-40"><g id="freepik--frame--inject-40"><polygon points="455.56 139.29 453.86 140.3 418.9 120.12 420.6 119.1 455.56 139.29" style="fill:#fafafa"></polygon><polygon points="420.6 119.1 453.86 138.3 453.86 103.48 420.6 84.29 420.6 119.1" style="fill:#fff"></polygon><path d="M415.69,122l41.38,23.9V101.62L415.69,77.73Zm3.21-38.68,35,20.19V140.3l-35-20.18Z" style="fill:#f0f0f0"></path><polygon points="418.9 120.12 420.6 119.1 420.6 84.29 418.9 83.29 418.9 120.12" style="fill:#e0e0e0"></polygon><polygon points="415.69 77.73 417.42 76.74 458.8 100.63 457.07 101.62 415.69 77.73" style="fill:#fafafa"></polygon><polygon points="458.8 100.63 457.07 101.62 457.07 145.87 458.8 144.88 458.8 100.63" style="fill:#e0e0e0"></polygon></g><g id="freepik--land--inject-40"><polygon points="421.9 118.06 452.56 135.76 452.56 126.91 444.89 109.21 440.12 113.64 441.84 121.06 431.25 98.42 421.9 109.21 421.9 118.06" style="fill:#f0f0f0"></polygon><path d="M440.41,100.67a5,5,0,0,1,2.26,3.92c0,1.45-1,2-2.26,1.31a5,5,0,0,1-2.27-3.92C438.14,100.53,439.16,99.94,440.41,100.67Z" style="fill:#f0f0f0"></path></g></g></g><g id="freepik--Window--inject-40"><g id="freepik--window--inject-40"><polygon points="39.76 174.69 42.48 176.31 144.44 117.17 141.72 115.55 39.76 174.69" style="fill:#fafafa"></polygon><polygon points="141.72 115.55 42.49 173.1 42.49 88.91 141.72 31.37 141.72 115.55" style="fill:#fff"></polygon><polygon points="92.18 57.22 92.18 144.62 97.32 141.65 97.32 54.24 92.18 57.22" style="fill:#f0f0f0"></polygon><polygon points="89.61 55.72 92.18 57.22 92.18 144.62 89.61 143.13 89.61 55.72" style="fill:#e0e0e0"></polygon><path d="M149.59,20.86,37.34,85.94v99.28l112.25-65.08Zm-5.15,96.31L42.49,176.31V88.91L144.44,29.77Z" style="fill:#f0f0f0"></path><polygon points="144.44 117.17 141.72 115.55 141.72 31.37 144.44 29.77 144.44 117.17" style="fill:#e0e0e0"></polygon><polygon points="149.59 20.86 146.82 19.27 34.57 84.35 37.34 85.94 149.59 20.86" style="fill:#fafafa"></polygon><polygon points="34.57 84.35 37.34 85.94 37.34 185.22 34.57 183.64 34.57 84.35" style="fill:#e0e0e0"></polygon><polygon points="92.18 60.18 97.31 57.22 97.31 60.19 92.18 63.15 92.18 60.18" style="fill:#e0e0e0"></polygon><polygon points="92.18 63.15 89.61 61.66 92.18 60.18 92.18 63.15" style="opacity:0.15"></polygon></g></g><g id="freepik--Furniture--inject-40"><g id="freepik--Drawer--inject-40"><polygon points="109.58 315.29 105.89 333.58 102.31 335.65 98.76 333.6 95.04 315.29 102.31 311.09 109.58 315.29" style="fill:#e0e0e0"></polygon><polygon points="109.58 315.29 105.89 333.58 102.31 335.65 98.76 333.6 95.04 315.29 102.31 311.09 109.58 315.29" style="opacity:0.05"></polygon><polygon points="102.31 335.65 102.31 319.49 109.58 315.29 105.89 333.58 102.31 335.65" style="fill:#ebebeb"></polygon><polygon points="109.58 315.29 107.2 327.1 102.31 329.92 97.44 327.11 95.04 315.29 102.31 311.09 109.58 315.29" style="opacity:0.05"></polygon><polygon points="77.61 296.84 73.93 315.12 70.34 317.19 66.79 315.14 63.07 296.84 70.34 292.64 77.61 296.84" style="fill:#e0e0e0"></polygon><polygon points="77.61 296.84 73.93 315.12 70.34 317.19 66.79 315.14 63.07 296.84 70.34 292.64 77.61 296.84" style="opacity:0.05"></polygon><polygon points="70.34 317.19 70.34 301.03 77.61 296.84 73.93 315.12 70.34 317.19" style="fill:#ebebeb"></polygon><polygon points="77.61 296.84 75.23 308.64 70.34 311.47 65.47 308.66 63.07 296.84 70.34 292.64 77.61 296.84" style="opacity:0.05"></polygon><polygon points="204.13 260.7 200.44 278.99 196.86 281.05 193.31 279 189.59 260.7 196.86 256.5 204.13 260.7" style="opacity:0.05"></polygon><polygon points="196.86 281.05 196.86 264.89 204.13 260.7 200.44 278.99 196.86 281.05" style="fill:#ebebeb"></polygon><polygon points="204.13 260.7 201.75 272.51 196.86 275.33 191.99 272.52 189.59 260.7 196.86 256.5 204.13 260.7" style="opacity:0.05"></polygon><g id="freepik--Cabinet--inject-40"><g id="freepik--cabinet--inject-40"><polygon points="102.31 326.97 62.69 304.1 62.69 218.36 102.31 241.24 102.31 326.97" style="fill:#e0e0e0"></polygon><polygon points="102.31 241.24 206.19 181.26 206.19 266.99 102.31 326.97 102.31 241.24" style="fill:#ebebeb"></polygon><polygon points="206.19 181.26 102.31 241.24 62.69 218.36 166.58 158.39 206.19 181.26" style="fill:#f5f5f5"></polygon><polygon points="107.97 283.71 200.53 230.26 200.53 261.73 201.57 262.33 109.01 315.77 107.97 315.17 107.97 283.71" style="fill:#e0e0e0"></polygon><polygon points="109.01 284.31 201.57 230.87 201.57 262.33 109.01 315.77 109.01 284.31" style="fill:#f5f5f5"></polygon><path d="M153.51,264.56l7.7-4.44c1-.58,1.81-.32,1.81.58a3.6,3.6,0,0,1-1.81,2.68l-7.7,4.45c-1,.58-1.81.31-1.81-.59A3.63,3.63,0,0,1,153.51,264.56Z" style="fill:#e0e0e0"></path><polygon points="107.97 245.72 200.53 192.27 200.53 223.74 201.57 224.34 109 277.78 107.96 277.18 107.97 245.72" style="fill:#e0e0e0"></polygon><polygon points="109 246.32 201.57 192.87 201.57 224.34 109 277.78 109 246.32" style="fill:#f5f5f5"></polygon><path d="M153.51,226.57l7.7-4.45c1-.57,1.81-.31,1.81.59a3.63,3.63,0,0,1-1.81,2.68l-7.7,4.45c-1,.57-1.81.31-1.81-.59A3.62,3.62,0,0,1,153.51,226.57Z" style="fill:#e0e0e0"></path></g></g><g id="freepik--Pot--inject-40"><path d="M179.84,169.43c4.81,2.77,4.81,7.27,0,10s-12.58,2.77-17.39,0-4.8-7.27,0-10S175,166.66,179.84,169.43Z" style="fill:#e0e0e0"></path><path d="M163.5,175.07c-4.18-4.27-6.64-14.92-2.56-18.31H181.7c4.07,3.39,1.62,14-2.56,18.3l-.11.12-.15.14a4.17,4.17,0,0,1-.38.34l-.1.08-.31.24c-.18.12-.36.24-.54.34a13.75,13.75,0,0,1-12.46,0h0a5.6,5.6,0,0,1-.55-.35l-.29-.22-.12-.1c-.13-.1-.25-.21-.37-.32l-.16-.16Z" style="fill:#ebebeb"></path><path d="M179.89,155.4c4.74,2.73,4.74,7.17,0,9.9s-12.41,2.73-17.15,0-4.73-7.17,0-9.9S175.16,152.66,179.89,155.4Z" style="fill:#fafafa"></path><path d="M176.54,157.34c2.88,1.66,2.88,4.36,0,6a11.57,11.57,0,0,1-10.44,0c-2.88-1.66-2.88-4.36,0-6A11.5,11.5,0,0,1,176.54,157.34Z" style="fill:#f5f5f5"></path><path d="M166.1,160.2a11.5,11.5,0,0,1,10.44,0,4.67,4.67,0,0,1,1.72,1.58,4.67,4.67,0,0,1-1.72,1.58,11.57,11.57,0,0,1-10.44,0,4.67,4.67,0,0,1-1.72-1.58A4.67,4.67,0,0,1,166.1,160.2Z" style="fill:#ebebeb"></path><path d="M175.9,161.78a23.76,23.76,0,0,0,3.77-5c1.75-3.08,2.07-7.21,1.17-7.72s-4.57,3.61-4.57,3.61a22.1,22.1,0,0,0,.38-5.26c-.15-2.74-.82-5.24-1.6-5.74s-2.55,3-3.3,5.47-1.21,4.57-1.21,4.57a38.24,38.24,0,0,0-1.35-5.77c-.91-2.61-1.74-3.2-2.39-2.94s-1.06,1.47-1.25,4.94a33.53,33.53,0,0,0,.15,5s-1.29-1.42-2.73-2.8-2.25-1.73-2.7-1.44-.57,2.65,1.87,7.06a24.5,24.5,0,0,0,4.61,6.07S170.13,164,175.9,161.78Z" style="fill:#e0e0e0"></path></g><g id="freepik--picture--inject-40"><g id="freepik--frame--inject-40"><polygon points="107.56 222.85 109.1 223.6 137.67 207.1 136.13 206.36 107.56 222.85" style="fill:#fafafa"></polygon><polygon points="136.13 206.36 108.95 222.05 104.99 181.39 132.17 165.72 136.13 206.36" style="fill:#fff"></polygon><path d="M135.91,160.51,102.09,180,106.75,228l33.82-19.52Zm1.76,46.59L109.1,223.6,105,181.39l28.57-16.49Z" style="fill:#f0f0f0"></path><polygon points="137.67 207.1 136.13 206.36 132.17 165.72 133.56 164.9 137.67 207.1" style="fill:#e0e0e0"></polygon><polygon points="135.91 160.51 134.35 159.79 100.52 179.32 102.09 180.04 135.91 160.51" style="fill:#fafafa"></polygon><polygon points="100.52 179.32 102.09 180.04 106.75 227.99 105.19 227.26 100.52 179.32" style="fill:#e0e0e0"></polygon></g><g id="freepik--land--inject-40"><polygon points="134.93 205.59 109.87 220.05 109.21 213.2 113.87 193.08 118.31 199.95 117.39 205.73 124.8 184.39 134.26 198.74 134.93 205.59" style="fill:#f0f0f0"></polygon><path d="M113.48,184.61a3.53,3.53,0,0,0-1.65,3.1c.11,1.12,1,1.55,2,1a3.54,3.54,0,0,0,1.65-3.1C115.42,184.45,114.51,184,113.48,184.61Z" style="fill:#f0f0f0"></path></g></g></g></g><g id="freepik--Bookcase--inject-40"><g id="freepik--bookcase--inject-40"><g id="freepik--v--inject-40"><polygon points="305.12 282.68 333.05 266.56 460.03 339.88 460.03 342.94 432.1 359.07 305.12 285.75 305.12 282.68" style="fill:#ebebeb"></polygon><polygon points="432.1 356 305.12 282.68 333.05 266.56 460.03 339.88 432.1 356" style="fill:#f5f5f5"></polygon><polygon points="432.1 356 432.1 359.07 460.03 342.94 460.03 339.88 432.1 356" style="fill:#e0e0e0"></polygon><polygon points="305.12 170.54 333.05 154.41 335.7 155.94 335.7 268.09 307.77 284.22 305.12 282.68 305.12 170.54" style="fill:#ebebeb"></polygon><polygon points="335.7 268.09 307.77 284.22 307.77 172.07 335.7 155.94 335.7 268.09" style="fill:#e0e0e0"></polygon><polygon points="338.72 231.95 317.41 244.26 317.41 286.26 338.72 273.95 338.72 231.95" style="fill:#e0e0e0"></polygon><path d="M318.1,244.93l20.62-11.83a8.61,8.61,0,0,0,4.71,2.58L323,247.46A20.68,20.68,0,0,1,318.1,244.93Z" style="fill:#fff"></path><path d="M325,247.39a4.38,4.38,0,0,1-4,0l-3.48-2a1.2,1.2,0,0,1,0-2.28l20.32-11.66.87.49-20,11.55c-.66.37-.66,1,0,1.36l3.23,1.83a2.66,2.66,0,0,0,2.38,0l20-11.52,1,.56Z" style="fill:#fafafa"></path><path d="M345.29,235.73v42L325,289.39a4.45,4.45,0,0,1-4,0l-3.48-2a1.41,1.41,0,0,1-.82-1.14v-42a1.41,1.41,0,0,0,.82,1.14l3.48,2a4.38,4.38,0,0,0,4,0Z" style="fill:#e0e0e0"></path><path d="M323,247.86a4,4,0,0,1-2-.47l-3.48-2a1.41,1.41,0,0,1-.82-1.14v42a1.41,1.41,0,0,0,.82,1.14l3.48,2a4.08,4.08,0,0,0,2,.47Z" style="fill:#f0f0f0"></path><polygon points="347.43 236.95 326.12 249.26 326.12 291.26 347.43 278.96 347.43 236.95" style="fill:#ebebeb"></polygon><path d="M326.81,249.93l20.62-11.83a8.61,8.61,0,0,0,4.71,2.58L331.7,252.46A20.68,20.68,0,0,1,326.81,249.93Z" style="fill:#fff"></path><path d="M333.68,252.39a4.38,4.38,0,0,1-4,0l-3.47-2a1.2,1.2,0,0,1,0-2.28l20.32-11.66.86.49-20,11.55a.72.72,0,0,0,0,1.36l3.23,1.83a2.63,2.63,0,0,0,2.38,0l20-11.52,1,.56Z" style="fill:#fafafa"></path><path d="M354,240.73v42l-20.32,11.66a4.38,4.38,0,0,1-4,0l-3.47-2a1.39,1.39,0,0,1-.82-1.14v-42a1.39,1.39,0,0,0,.82,1.14l3.47,2a4.38,4.38,0,0,0,4,0Z" style="fill:#e0e0e0"></path><path d="M331.7,252.86a4,4,0,0,1-2-.47l-3.47-2a1.39,1.39,0,0,1-.82-1.14v42a1.39,1.39,0,0,0,.82,1.14l3.47,2a4.08,4.08,0,0,0,2,.47Z" style="fill:#f0f0f0"></path><polygon points="364.64 247.8 343.33 260.11 343.33 300.64 364.64 288.33 364.64 247.8" style="fill:#e0e0e0"></polygon><path d="M344,260.78,364.64,249a8.66,8.66,0,0,0,4.71,2.57l-20.44,11.79A20.68,20.68,0,0,1,344,260.78Z" style="fill:#fff"></path><path d="M350.89,263.24a4.45,4.45,0,0,1-4,0l-3.48-2a1.2,1.2,0,0,1,0-2.27l20.33-11.66.86.49-20,11.54a.72.72,0,0,0,0,1.37l3.23,1.83a2.66,2.66,0,0,0,2.38,0l20-11.51,1,.55Z" style="fill:#fafafa"></path><path d="M371.21,251.57V292.1l-20.32,11.66a4.38,4.38,0,0,1-4,0l-3.48-2a1.39,1.39,0,0,1-.82-1.13V260.1a1.39,1.39,0,0,0,.82,1.14l3.48,2a4.38,4.38,0,0,0,4,0Z" style="fill:#e0e0e0"></path><path d="M348.91,263.71a4.08,4.08,0,0,1-2-.47l-3.48-2a1.39,1.39,0,0,1-.82-1.14v40.54a1.39,1.39,0,0,0,.82,1.13l3.48,2a4,4,0,0,0,2,.47Z" style="fill:#f0f0f0"></path><polygon points="373.35 252.8 352.05 265.11 352.05 305.64 373.35 293.33 373.35 252.8" style="fill:#ebebeb"></polygon><path d="M352.73,265.78,373.35,254a8.71,8.71,0,0,0,4.71,2.58l-20.44,11.78A20.68,20.68,0,0,1,352.73,265.78Z" style="fill:#fff"></path><path d="M359.6,268.24a4.38,4.38,0,0,1-4,0l-3.47-2a1.2,1.2,0,0,1,0-2.28l20.32-11.66.86.49-20,11.54a.73.73,0,0,0,0,1.37l3.23,1.83a2.69,2.69,0,0,0,2.38,0L379,256l1,.56Z" style="fill:#fafafa"></path><path d="M379.92,256.57v40.54L359.6,308.77a4.45,4.45,0,0,1-4,0l-3.47-2a1.37,1.37,0,0,1-.82-1.13V265.11a1.37,1.37,0,0,0,.82,1.13l3.47,2a4.38,4.38,0,0,0,4,0Z" style="fill:#e0e0e0"></path><path d="M357.62,268.71a4.11,4.11,0,0,1-2-.47l-3.47-2a1.37,1.37,0,0,1-.82-1.13v40.53a1.37,1.37,0,0,0,.82,1.13l3.47,2a4.11,4.11,0,0,0,2,.47Z" style="fill:#f0f0f0"></path><polygon points="387.9 263.57 366.59 275.88 373.21 317.63 394.51 305.33 387.9 263.57" style="fill:#ebebeb"></polygon><path d="M367.43,276.46l20.63-11.84a11.25,11.25,0,0,0,5.49,2.13L373.1,278.54A27.53,27.53,0,0,1,367.43,276.46Z" style="fill:#fff"></path><path d="M375.24,278.38a5.53,5.53,0,0,1-4.29.19l-4.06-1.66c-1.28-.52-1.42-1.45-.33-2.08l20.33-11.67,1,.41-20,11.54c-.66.38-.57.94.2,1.25l3.77,1.52a3.31,3.31,0,0,0,2.57-.11l20-11.52,1.14.46Z" style="fill:#fafafa"></path><path d="M395.57,266.71l6.62,41.75-20.33,11.67a5.51,5.51,0,0,1-4.3.19l-4.05-1.65c-.64-.26-1-.62-1.06-1l-6.61-41.76c.06.38.41.74,1.05,1l4.06,1.66a5.53,5.53,0,0,0,4.29-.19Z" style="fill:#e0e0e0"></path><path d="M373.16,278.91a5.44,5.44,0,0,1-2.21-.34l-4.06-1.66c-.64-.26-1-.62-1.05-1l6.61,41.76c.06.38.42.74,1.06,1l4.05,1.65a5.51,5.51,0,0,0,2.22.34Z" style="fill:#f0f0f0"></path><polygon points="403.1 271.07 381.79 283.37 381.79 322.92 403.1 310.62 403.1 271.07" style="fill:#e0e0e0"></polygon><path d="M382.48,284.05l20.61-11.84a8.68,8.68,0,0,0,4.72,2.58l-20.44,11.78S386,286.27,382.48,284.05Z" style="fill:#fff"></path><path d="M389.35,286.5a4.41,4.41,0,0,1-4,0l-3.47-2a1.2,1.2,0,0,1,0-2.27l20.32-11.66.86.49-20,11.54c-.66.38-.66,1,0,1.36l3.23,1.83a2.61,2.61,0,0,0,2.37,0l20-11.52,1,.56Z" style="fill:#fafafa"></path><path d="M409.67,274.84v39.55l-20.32,11.66a4.41,4.41,0,0,1-4,0l-3.47-2a1.39,1.39,0,0,1-.82-1.14V283.37a1.39,1.39,0,0,0,.82,1.14l3.47,2a4.47,4.47,0,0,0,4,0Z" style="fill:#e0e0e0"></path><path d="M387.37,287a4.15,4.15,0,0,1-2-.47l-3.47-2a1.39,1.39,0,0,1-.82-1.14v39.55a1.39,1.39,0,0,0,.82,1.14l3.47,2a4,4,0,0,0,2,.47Z" style="fill:#f0f0f0"></path><polygon points="411.81 276.07 390.5 288.38 390.5 327.93 411.81 315.62 411.81 276.07" style="fill:#ebebeb"></polygon><path d="M391.19,289.05l20.62-11.83a8.66,8.66,0,0,0,4.71,2.57l-20.44,11.79A20.68,20.68,0,0,1,391.19,289.05Z" style="fill:#fff"></path><path d="M398.06,291.5a4.38,4.38,0,0,1-4,0l-3.47-2c-1.1-.63-1.1-1.64,0-2.27L411,275.58l.86.49-20,11.54a.72.72,0,0,0,0,1.36l3.23,1.83a2.63,2.63,0,0,0,2.38,0l20-11.52,1,.56Z" style="fill:#fafafa"></path><path d="M418.38,279.84v39.55l-20.32,11.66a4.38,4.38,0,0,1-4,0l-3.48-2a1.37,1.37,0,0,1-.81-1.14V288.37a1.37,1.37,0,0,0,.81,1.14l3.48,2a4.45,4.45,0,0,0,4,0Z" style="fill:#e0e0e0"></path><path d="M396.08,292a4.08,4.08,0,0,1-2-.47l-3.48-2a1.37,1.37,0,0,1-.81-1.14v39.55a1.37,1.37,0,0,0,.81,1.14l3.48,2a4,4,0,0,0,2,.47Z" style="fill:#f0f0f0"></path><polygon points="430.12 285.37 408.81 297.68 408.81 338.21 430.12 325.9 430.12 285.37" style="fill:#e0e0e0"></polygon><path d="M409.5,298.35l20.62-11.83a8.71,8.71,0,0,0,4.71,2.58l-20.44,11.78A20.68,20.68,0,0,1,409.5,298.35Z" style="fill:#fff"></path><path d="M416.37,300.81a4.38,4.38,0,0,1-4,0l-3.47-2a1.2,1.2,0,0,1,0-2.28l20.32-11.66.86.49-20,11.54a.73.73,0,0,0,0,1.37l3.23,1.83a2.69,2.69,0,0,0,2.38,0l20-11.52,1,.56Z" style="fill:#fafafa"></path><path d="M436.69,289.15v40.53l-20.32,11.66a4.45,4.45,0,0,1-4,0l-3.47-2a1.37,1.37,0,0,1-.82-1.13V297.68a1.37,1.37,0,0,0,.82,1.13l3.47,2a4.38,4.38,0,0,0,4,0Z" style="fill:#e0e0e0"></path><path d="M414.39,301.28a4.11,4.11,0,0,1-2-.47l-3.47-2a1.37,1.37,0,0,1-.82-1.13v40.53a1.37,1.37,0,0,0,.82,1.13l3.47,2a4.11,4.11,0,0,0,2,.47Z" style="fill:#f0f0f0"></path><polygon points="438.83 290.37 417.53 302.68 417.53 343.21 438.83 330.91 438.83 290.37" style="fill:#ebebeb"></polygon><path d="M418.21,303.35l20.62-11.83a8.64,8.64,0,0,0,4.72,2.58L423.1,305.88A20.68,20.68,0,0,1,418.21,303.35Z" style="fill:#fff"></path><path d="M425.08,305.81a4.38,4.38,0,0,1-4,0l-3.47-2a1.2,1.2,0,0,1,0-2.28L438,289.88l.86.49-20,11.55c-.66.37-.66,1,0,1.36l3.22,1.83a2.63,2.63,0,0,0,2.38,0l20-11.52,1,.56Z" style="fill:#fafafa"></path><path d="M445.4,294.15v40.53l-20.32,11.66a4.38,4.38,0,0,1-4,0l-3.47-2a1.39,1.39,0,0,1-.82-1.14V302.68a1.39,1.39,0,0,0,.82,1.14l3.47,2a4.38,4.38,0,0,0,4,0Z" style="fill:#e0e0e0"></path><path d="M423.1,306.28a4,4,0,0,1-2-.47l-3.47-2a1.39,1.39,0,0,1-.82-1.14v40.53a1.39,1.39,0,0,0,.82,1.14l3.47,2a4.14,4.14,0,0,0,2,.47Z" style="fill:#f0f0f0"></path><polygon points="307.77 230.19 335.7 214.05 460.03 285.85 460.03 288.92 432.1 305.06 307.77 233.25 307.77 230.19" style="fill:#ebebeb"></polygon><polygon points="432.1 301.99 307.77 230.19 335.7 214.05 460.03 285.85 432.1 301.99" style="fill:#f5f5f5"></polygon><polygon points="432.1 301.99 432.1 305.06 460.03 288.92 460.03 285.85 432.1 301.99" style="fill:#e0e0e0"></polygon><polygon points="340.9 181.32 319.6 193.63 326.21 235.38 347.52 223.08 340.9 181.32" style="fill:#ebebeb"></polygon><path d="M320.44,194.21l20.63-11.84a11.21,11.21,0,0,0,5.48,2.13l-20.44,11.79A27.27,27.27,0,0,1,320.44,194.21Z" style="fill:#fff"></path><path d="M328.24,196.13a5.53,5.53,0,0,1-4.29.19l-4.06-1.66c-1.27-.52-1.42-1.45-.33-2.08l20.33-11.67,1,.41-20,11.54c-.65.38-.56.94.2,1.25l3.77,1.52a3.38,3.38,0,0,0,2.58-.11l20-11.53,1.14.47Z" style="fill:#fafafa"></path><path d="M348.57,184.46l6.62,41.75-20.33,11.67a5.48,5.48,0,0,1-4.29.19l-4.06-1.65c-.64-.26-1-.62-1.05-1l-6.62-41.76c.06.38.42.74,1.05,1l4.06,1.66a5.53,5.53,0,0,0,4.29-.19Z" style="fill:#e0e0e0"></path><path d="M326.17,196.66a5.51,5.51,0,0,1-2.22-.34l-4.06-1.66c-.63-.26-1-.62-1.05-1l6.62,41.76c.06.38.41.74,1.05,1l4.06,1.65a5.44,5.44,0,0,0,2.21.34Z" style="fill:#f0f0f0"></path><polygon points="366.97 193.08 345.66 205.38 345.66 245.91 366.97 233.61 366.97 193.08" style="fill:#ebebeb"></polygon><path d="M346.35,206.06,367,194.22a8.61,8.61,0,0,0,4.71,2.58l-20.44,11.78S349.92,208.28,346.35,206.06Z" style="fill:#fff"></path><path d="M353.22,208.51a4.38,4.38,0,0,1-4,0l-3.48-2a1.2,1.2,0,0,1,0-2.27l20.32-11.66.87.49-20,11.54c-.66.38-.66,1,0,1.36l3.23,1.83a2.63,2.63,0,0,0,2.38,0l20-11.52,1,.56Z" style="fill:#fafafa"></path><path d="M373.54,196.85v40.53L353.22,249a4.38,4.38,0,0,1-4,0l-3.48-2a1.39,1.39,0,0,1-.82-1.14V205.38a1.39,1.39,0,0,0,.82,1.14l3.48,2a4.45,4.45,0,0,0,4,0Z" style="fill:#e0e0e0"></path><path d="M351.24,209a4.08,4.08,0,0,1-2-.47l-3.48-2a1.39,1.39,0,0,1-.82-1.14v40.53a1.39,1.39,0,0,0,.82,1.14l3.48,2a4,4,0,0,0,2,.47Z" style="fill:#f0f0f0"></path><polygon points="377.82 192.11 356.52 204.42 356.52 252.12 377.82 239.81 377.82 192.11" style="fill:#e0e0e0"></polygon><path d="M357.2,205.09l20.62-11.83a8.64,8.64,0,0,0,4.72,2.58l-20.45,11.78A20.68,20.68,0,0,1,357.2,205.09Z" style="fill:#fff"></path><path d="M364.07,207.55a4.38,4.38,0,0,1-4,0l-3.47-2a1.2,1.2,0,0,1,0-2.28L377,191.62l.86.49-20,11.55c-.66.37-.66,1,0,1.36l3.22,1.83a2.63,2.63,0,0,0,2.38,0l20-11.52,1,.56Z" style="fill:#fafafa"></path><path d="M384.39,195.89v47.7l-20.32,11.66a4.45,4.45,0,0,1-4,0l-3.47-2a1.37,1.37,0,0,1-.82-1.13v-47.7a1.39,1.39,0,0,0,.82,1.14l3.47,2a4.38,4.38,0,0,0,4,0Z" style="fill:#e0e0e0"></path><path d="M362.09,208a4,4,0,0,1-2-.47l-3.47-2a1.39,1.39,0,0,1-.82-1.14v47.7a1.37,1.37,0,0,0,.82,1.13l3.47,2a4.14,4.14,0,0,0,2,.47Z" style="fill:#f0f0f0"></path><polygon points="386.53 197.12 365.23 209.42 365.23 257.12 386.53 244.81 386.53 197.12" style="fill:#ebebeb"></polygon><path d="M365.92,210.1l20.61-11.84a8.68,8.68,0,0,0,4.72,2.58L370.8,212.62A20.66,20.66,0,0,1,365.92,210.1Z" style="fill:#fff"></path><path d="M372.79,212.55a4.41,4.41,0,0,1-4,0l-3.47-2a1.2,1.2,0,0,1,0-2.27l20.32-11.67.86.5-20,11.54a.71.71,0,0,0,0,1.36l3.23,1.83a2.61,2.61,0,0,0,2.37,0l20-11.52,1,.56Z" style="fill:#fafafa"></path><path d="M393.1,200.89v47.7l-20.31,11.66a4.41,4.41,0,0,1-4,0l-3.47-2a1.41,1.41,0,0,1-.82-1.14v-47.7a1.41,1.41,0,0,0,.82,1.14l3.47,2a4.41,4.41,0,0,0,4,0Z" style="fill:#e0e0e0"></path><path d="M370.8,213a4,4,0,0,1-2-.47l-3.47-2a1.41,1.41,0,0,1-.82-1.14v47.7a1.41,1.41,0,0,0,.82,1.14l3.47,2a4.14,4.14,0,0,0,2,.47Z" style="fill:#f0f0f0"></path><polygon points="412.34 214.99 388.59 228.71 395.96 275.25 419.71 261.54 412.34 214.99" style="fill:#ebebeb"></polygon><path d="M389.53,229.36l23-13.2a12.69,12.69,0,0,0,6.12,2.37l-22.79,13.14A30.1,30.1,0,0,1,389.53,229.36Z" style="fill:#fff"></path><path d="M398.23,231.49a6.19,6.19,0,0,1-4.79.22l-4.52-1.85c-1.42-.58-1.59-1.62-.37-2.32l22.67-13,1.12.46-22.28,12.86c-.74.42-.64,1.05.22,1.4l4.2,1.69a3.7,3.7,0,0,0,2.87-.13L419.63,218l1.26.51Z" style="fill:#fafafa"></path><path d="M420.89,218.48,428.27,265l-22.66,13a6.15,6.15,0,0,1-4.79.21l-4.52-1.84c-.71-.29-1.11-.7-1.18-1.12l-7.38-46.55c.07.42.47.83,1.18,1.12l4.52,1.85a6.19,6.19,0,0,0,4.79-.22Z" style="fill:#e0e0e0"></path><path d="M395.91,232.08a6,6,0,0,1-2.47-.37l-4.52-1.85c-.71-.29-1.11-.7-1.18-1.12l7.38,46.55c.07.42.47.83,1.18,1.12l4.52,1.84a6,6,0,0,0,2.47.38Z" style="fill:#f0f0f0"></path><polygon points="428.14 222.49 406.84 234.79 406.84 281.39 428.14 269.09 428.14 222.49" style="fill:#e0e0e0"></polygon><path d="M407.53,235.47l20.61-11.84a8.68,8.68,0,0,0,4.72,2.58L412.41,238S411.09,237.69,407.53,235.47Z" style="fill:#fff"></path><path d="M414.4,237.92a4.41,4.41,0,0,1-4,0l-3.47-2a1.2,1.2,0,0,1,0-2.27L427.28,222l.86.49-20,11.54c-.66.38-.66,1,0,1.36l3.23,1.83a2.61,2.61,0,0,0,2.37,0l20-11.52,1,.56Z" style="fill:#fafafa"></path><path d="M434.72,226.26v46.6L414.4,284.52a4.41,4.41,0,0,1-4,0l-3.47-2a1.41,1.41,0,0,1-.82-1.14v-46.6a1.39,1.39,0,0,0,.82,1.14l3.47,2a4.47,4.47,0,0,0,4,0Z" style="fill:#e0e0e0"></path><path d="M412.41,238.4a4.14,4.14,0,0,1-2-.47l-3.47-2a1.39,1.39,0,0,1-.82-1.14v46.6a1.41,1.41,0,0,0,.82,1.14l3.47,2a4.14,4.14,0,0,0,2,.47Z" style="fill:#f0f0f0"></path><polygon points="436.86 227.49 415.55 239.8 415.55 286.39 436.86 274.09 436.86 227.49" style="fill:#ebebeb"></polygon><path d="M416.24,240.47l20.62-11.83a8.66,8.66,0,0,0,4.71,2.57L421.13,243A20.68,20.68,0,0,1,416.24,240.47Z" style="fill:#fff"></path><path d="M423.11,242.93a4.45,4.45,0,0,1-4,0l-3.48-2a1.2,1.2,0,0,1,0-2.27L436,227l.86.49-20,11.54c-.66.38-.66,1,0,1.36l3.23,1.83a2.63,2.63,0,0,0,2.38,0l20-11.52,1,.56Z" style="fill:#fafafa"></path><path d="M443.43,231.26v46.6l-20.32,11.66a4.38,4.38,0,0,1-4,0l-3.48-2a1.39,1.39,0,0,1-.82-1.14v-46.6a1.39,1.39,0,0,0,.82,1.14l3.48,2a4.45,4.45,0,0,0,4,0Z" style="fill:#e0e0e0"></path><path d="M421.13,243.4a4.08,4.08,0,0,1-2-.47l-3.48-2a1.39,1.39,0,0,1-.82-1.14v46.6a1.39,1.39,0,0,0,.82,1.14l3.48,2a4.08,4.08,0,0,0,2,.47Z" style="fill:#f0f0f0"></path><polygon points="429.44 242.32 457.37 226.2 460.03 227.73 460.03 342.94 432.1 359.07 429.44 357.54 429.44 242.32" style="fill:#ebebeb"></polygon><polygon points="460.03 342.94 432.1 359.07 432.1 243.86 460.03 227.73 460.03 342.94" style="fill:#e6e6e6"></polygon><polygon points="305.12 167.47 333.05 151.34 460.03 224.67 460.03 227.73 432.1 243.86 305.12 170.54 305.12 167.47" style="fill:#ebebeb"></polygon><polygon points="432.1 240.79 305.12 167.47 333.05 151.34 460.03 224.67 432.1 240.79" style="fill:#fafafa"></polygon><polygon points="432.1 240.79 432.1 243.86 460.03 227.73 460.03 224.67 432.1 240.79" style="fill:#e6e6e6"></polygon></g><g id="freepik--picture--inject-40"><g id="freepik--frame--inject-40"><polygon points="383.65 198.46 382.37 199.08 358.61 185.36 359.89 184.74 383.65 198.46" style="fill:#fafafa"></polygon><polygon points="359.89 184.74 382.49 197.79 385.78 163.98 363.18 150.94 359.89 184.74" style="fill:#fff"></polygon><path d="M356.19,186.49l28.13,16.24,3.88-39.88-28.13-16.24ZM362,150.26,385.78,164l-3.41,35.1-23.76-13.72Z" style="fill:#f0f0f0"></path><polygon points="358.61 185.36 359.89 184.74 363.18 150.94 362.02 150.26 358.61 185.36" style="fill:#e0e0e0"></polygon><polygon points="360.07 146.61 361.37 146.01 389.5 162.25 388.2 162.85 360.07 146.61" style="fill:#fafafa"></polygon><polygon points="389.5 162.25 388.2 162.85 384.32 202.73 385.62 202.13 389.5 162.25" style="fill:#e0e0e0"></polygon></g><g id="freepik--land--inject-40"><polygon points="360.88 184.1 381.72 196.13 382.28 190.44 378.4 173.7 374.71 179.41 375.47 184.22 369.31 166.47 361.44 178.41 360.88 184.1" style="fill:#f0f0f0"></polygon><path d="M378.72,166.66a2.93,2.93,0,0,1,1.38,2.57c-.09.93-.86,1.29-1.71.8a2.94,2.94,0,0,1-1.37-2.58C377.11,166.52,377.87,166.17,378.72,166.66Z" style="fill:#f0f0f0"></path></g></g><g id="freepik--Table--inject-40"><g id="freepik--shadow--inject-40"><path id="freepik--shadow--inject-40" d="M428.19,232a21.2,21.2,0,0,0,11.59-3.16c2.7-1.8,4.19-4.05,4.19-6.33s-1.49-4.53-4.19-6.33a22.85,22.85,0,0,0-23.19,0c-2.7,1.8-4.19,4.05-4.19,6.33s1.49,4.53,4.19,6.33A21.21,21.21,0,0,0,428.19,232Z" style="fill:#e0e0e0"></path></g><g id="freepik--Lamp--inject-40"><path d="M417.82,221.74a3.8,3.8,0,0,1,.08-.82,12.32,12.32,0,0,1,5-7.47h10.47a12.31,12.31,0,0,1,5,7.47,3.26,3.26,0,0,1,.08.82.45.45,0,0,1,0,.14c-.09,1.45-1.09,2.88-3,4a16.14,16.14,0,0,1-14.61,0c-1.91-1.11-2.91-2.54-3-4C417.83,221.88,417.82,221.79,417.82,221.74Z" style="fill:#ebebeb"></path><path d="M433.11,213.29c2.74,1.58,2.74,4.15,0,5.73a11,11,0,0,1-9.93,0c-2.74-1.58-2.74-4.15,0-5.73A10.93,10.93,0,0,1,433.11,213.29Z" style="fill:#fafafa"></path><path d="M426.72,178.36h2.85v36.7h0a.68.68,0,0,1-.41.65,2.22,2.22,0,0,1-2,0c-.31-.18-.45-.42-.41-.65h0Z" style="fill:#e0e0e0"></path><path d="M407.1,172.87h0L417,147.59h22.29l9.91,25.28h0c1.41,3.95-.53,8.23-5.84,11.29-8.4,4.85-22,4.85-30.41,0C407.62,181.1,405.68,176.82,407.1,172.87Z" style="fill:#f0f0f0"></path><path d="M436.21,153.64c-4.46,2.57-11.68,2.57-16.13,0s-4.45-6.74,0-9.31,11.67-2.57,16.13,0S440.66,151.07,436.21,153.64Z" style="fill:#fafafa"></path><path d="M428.14,154.25a15.09,15.09,0,0,0,7.41-1.76c1.72-1,2.68-2.24,2.68-3.5s-1-2.52-2.68-3.51a16.46,16.46,0,0,0-14.81,0c-1.73,1-2.68,2.24-2.68,3.51s.95,2.51,2.68,3.5A15.08,15.08,0,0,0,428.14,154.25Z" style="fill:#e0e0e0"></path></g></g></g></g><g id="freepik--Plants--inject-40"><g id="freepik--Plant--inject-40"><g id="freepik--pot--inject-40"><g id="freepik--pot--inject-40"><path d="M73.06,347.9c8.33-8.59,13.22-43.56,5.1-50.37H36.84c-8.12,6.81-3.24,41.76,5.08,50.36l.23.24.29.28a10,10,0,0,0,.75.68l.2.16c.2.16.4.32.63.48a11.4,11.4,0,0,0,1.07.69c6.85,4,18,4,24.81,0h0a9.91,9.91,0,0,0,1.08-.7c.21-.14.4-.3.59-.45l.24-.19c.26-.21.5-.43.73-.65l.33-.33Z" style="fill:#f0f0f0"></path><path d="M40.42,294.78c-9.42,5.51-9.42,14.43,0,19.94s24.72,5.5,34.15,0,9.43-14.43,0-19.94S49.85,289.28,40.42,294.78Z" style="fill:#f5f5f5"></path><path d="M45,297.43c-6.93,4-6.93,10.6,0,14.64s18.15,4,25.07,0,6.93-10.6,0-14.64S51.88,293.39,45,297.43Z" style="fill:#e0e0e0"></path><path d="M70,304.38c-6.92-4-18.15-4-25.07,0a11.62,11.62,0,0,0-4.15,3.84A11.55,11.55,0,0,0,45,312.07c6.92,4,18.15,4,25.07,0a11.39,11.39,0,0,0,4.15-3.85A11.45,11.45,0,0,0,70,304.38Z" style="fill:#fafafa"></path></g><g id="freepik--plants--inject-40"><path d="M39,233l15.69,12.44-15.17-7a42,42,0,0,0,2.63,14.37,92.9,92.9,0,0,1,11.81,8.38l-11.63-4.6s-.79,7.67,2.39,19.36c.84,3.06,4.28,8.91,6.45,13.28a50.57,50.57,0,0,0,3.38,5.83c.07.12.15.23.23.36q4-2.28,8.3-4.43c1.86-3.93,4.3-13.64,5.18-21.6C71.57,239,48.55,221.53,30,215.68,30,215.68,36.4,223.66,39,233Z" style="fill:#f0f0f0"></path><path d="M52.08,234.31c3.2,3.22,5.07,7.46,6.51,11.69a62.54,62.54,0,0,1,2.79,13.17,57.12,57.12,0,0,1-3.33,26.44h0a.44.44,0,1,0,.82.32h0a57.66,57.66,0,0,0,2.93-26.8,61.34,61.34,0,0,0-3-13.2C57.29,241.7,55.33,237.47,52.08,234.31Z" style="fill:#fff"></path><path d="M106.87,249l0,0a236.55,236.55,0,0,0-16.39,23l-15.92,2.57,11.74,2.05-6.3,10L64.3,289.89l12.23,2s-3.39,11.94-12.15,16.92c-4.83,2.74-7.2,3.16-8.65,1.78-1-1-1.25-6.69-2.09-11.8s-.92-13.42,3.91-23.45a31.58,31.58,0,0,1,5-7.37C74.15,255.06,96,248.84,106.87,249Z" style="fill:#f5f5f5"></path><path d="M90.21,254.21c-8.23,3.61-16,8.56-22.14,15.29a43.71,43.71,0,0,0-7.58,11.25A41,41,0,0,0,57,293.84s0,0,0,0,0,0,0,0a52.86,52.86,0,0,1,4.18-12.72A48.62,48.62,0,0,1,68.6,270c5.91-6.74,13.53-11.85,21.65-15.68a0,0,0,0,0,0-.06A0,0,0,0,0,90.21,254.21Z" style="fill:#fff"></path><path d="M12,255.57h0a31.82,31.82,0,0,1,4,.18,64.45,64.45,0,0,1,15.32,3.73c1.83.68,3.67,1.46,5.48,2.32.9.43,1.79.88,2.68,1.36A44.42,44.42,0,0,1,51.24,272a27.63,27.63,0,0,1,4,5.68c.14.26.29.52.42.79h0c.34.69.65,1.38.94,2.06a38.25,38.25,0,0,1,3.45,18.85c-.16,4.57-1.72,9.79-2.61,10.65a2.25,2.25,0,0,1-.39.3c-1.31.83-3.38.34-7.25-1.82-7.76-4.34-10.8-15.33-10.8-15.33l10.78-1.83L36,288.63l-5.63-8.77L40.72,278l-14.06-2.16a206.86,206.86,0,0,0-14.61-20.23s0,0,0,0Z" style="fill:#f0f0f0"></path><path d="M16,255.75a64.45,64.45,0,0,1,15.32,3.73c1.83.68,3.67,1.46,5.48,2.32.9.43,1.79.88,2.68,1.36A44.42,44.42,0,0,1,51.24,272a27.63,27.63,0,0,1,4,5.68c.14.26.29.52.42.79h0c.34.69.65,1.38.94,2.06a38.25,38.25,0,0,1,3.45,18.85c-.16,4.57-1.72,9.79-2.61,10.65a2.25,2.25,0,0,1-.39.3,2.38,2.38,0,0,1-.86.31c1-7.08-2.52-25-7.8-32.43-5.49-7.68-18.51-18.83-36.4-22.67v0A35.49,35.49,0,0,1,16,255.75Z" style="fill:#e6e6e6"></path><path d="M56.3,310.69a61,61,0,0,0-1-15.66,50.5,50.5,0,0,0-5.2-14.85,44,44,0,0,0-10.51-11.75,59,59,0,0,0-13.5-8.09,0,0,0,0,0-.06,0,0,0,0,0,0,0,.05,77.77,77.77,0,0,1,13,8.69,56.16,56.16,0,0,1,5.7,5.31,34.6,34.6,0,0,1,4.76,6.11,50.11,50.11,0,0,1,5.38,14.59,60.74,60.74,0,0,1,1.36,15.57.07.07,0,0,0,0,.05A.05.05,0,0,0,56.3,310.69Z" style="fill:#fff"></path></g></g></g></g><g id="freepik--speech-bubble--inject-40"><g id="freepik--speech-bubble--inject-40"><g id="freepik--speech-bubble--inject-40"><path d="M333.79,56.91l-27.5,15.84a2.42,2.42,0,0,0-1.1,1.9v31.54a2.38,2.38,0,0,0,1.1,1.89l3.94,2.21a2.47,2.47,0,0,0,2.2,0l27.5-15.85a2.42,2.42,0,0,0,1.1-1.9V61a2.4,2.4,0,0,0-1.1-1.89L336,56.89A2.47,2.47,0,0,0,333.79,56.91Z" style="fill:#BA68C8"></path><path d="M311.33,109.64V78.11a2.43,2.43,0,0,1,1.1-1.91l27.5-15.84c.61-.35,1.1-.07,1.1.63V92.53a2.42,2.42,0,0,1-1.1,1.9l-27.5,15.85C311.82,110.63,311.33,110.34,311.33,109.64Z" style="fill:#BA68C8"></path><path d="M312.43,110.28a2.53,2.53,0,0,1-2.2,0l-3.94-2.21a2.38,2.38,0,0,1-1.1-1.89V74.65a2.22,2.22,0,0,1,.35-1.12l6.12,3.5a2.12,2.12,0,0,0-.33,1.08v31.53C311.33,110.28,311.78,110.65,312.43,110.28Z" style="opacity:0.2"></path><path d="M341,60.79c-.09-.55-.54-.75-1.09-.43L312.43,76.2a2.21,2.21,0,0,0-.77.83l-6.13-3.5a2.19,2.19,0,0,1,.76-.78l27.5-15.85a2.47,2.47,0,0,1,2.2,0l3.94,2.21A2.44,2.44,0,0,1,341,60.79Z" style="fill:#fff;opacity:0.4"></path><path d="M305.19,85.46l-8.84,9a1,1,0,0,0,.16,1.5c.19.12,6.12,3.52,6.12,3.52L311.33,89Z" style="fill:#BA68C8"></path><path d="M305.19,85.46l-8.84,9a1,1,0,0,0,.16,1.5c.19.12,6.12,3.52,6.12,3.52L311.33,89Z" style="opacity:0.1"></path><path d="M311.33,89l-8.84,9a1,1,0,0,0,.83,1.65l8-1.16C312.19,98.48,312.19,89,311.33,89Z" style="fill:#BA68C8"></path></g><path d="M318.4,95.22a1.1,1.1,0,0,0,1.57,1,6.29,6.29,0,0,0-.23,1.62c0,1,.85,1.55,2.07.84s9.35-5.38,9.35-5.38V81.09a37.92,37.92,0,0,1-2.81-3.46,26.69,26.69,0,0,1,0-4.38c0-.46-1.53.2-2.5,1.8a4.53,4.53,0,0,0-.55,1.24,14.56,14.56,0,0,0-.56,2.6,8.28,8.28,0,0,0,.19,3.25l-5.65,3.26a3,3,0,0,0-1.09,1.11,4,4,0,0,0-.6,1.9c0,1.1.61,1.36.91,1.39a3.49,3.49,0,0,0-1.12,2.47c0,.85.52,1.47,1.38,1.18A4.15,4.15,0,0,0,318.4,95.22Z" style="fill:#fafafa"></path><path d="M336.59,78.14l0,13.17a1,1,0,0,1-.46.79L333,93.92c-.25.15-.46,0-.46-.26V80.52a1,1,0,0,1,.46-.8l3.17-1.84C336.38,77.73,336.59,77.85,336.59,78.14Z" style="fill:#fafafa"></path></g></g><g id="freepik--Character--inject-40"><g id="freepik--character--inject-40"><g id="freepik--Bottom--inject-40"><path d="M189.93,332.78c-4.13-.6-9.33-1-14.21,1.63-7.94,4.25-15.48,10.36-17.29,12.58s-3.72.83-5.22-3.81A14.13,14.13,0,0,1,157,328.72c4.16-3.78,8.21-6.62,9.88-9.23s8.43-3,12.43-2.1c0,0,1.4-.06,2.77-.06,6.18,0,20.43-2.73,20.43-2.73l2.67,18.33S194.06,333.39,189.93,332.78Z" style="fill:#c8856a"></path><path d="M159.74,363.72c-1.64.91-6.09,1.45-8.65-.09-5.34-3.21-7-13.46-5.72-19.25,1.56-7,5.21-10.75,6.27-15s.38-10.16,1.91-13.89a10.89,10.89,0,0,1,6.71-6.08,6.59,6.59,0,0,1,5.75.74l1.62,1.05Z" style="fill:#263238"></path><path d="M148,345.88c.86-7.77,8.32-13.36,7.8-20.9s3.36-17.67,13.2-13.18a36.85,36.85,0,0,1,5.3,2.91,6.87,6.87,0,0,0,2.35,1.26,11,11,0,0,0,3.18.22,3.58,3.58,0,0,1,1.46.05,1,1,0,0,1,.78,1.09l-2.68.05a1.22,1.22,0,0,0-.63.14c-.49.35-.14,1.11-.15,1.71,0,.86-.85,1.44-1.59,1.87l-2.91,1.69a12.83,12.83,0,0,0-2.68,1.64c-.26.27-.69,1.1-.18,1.36s2.16-.53,2.69-.68a2,2,0,0,1,1-.09c.56.15.84.76,1.07,1.29a10.42,10.42,0,0,0,2.81,4.14,12.34,12.34,0,0,0,3.47,1.76.53.53,0,0,1,.24.14.38.38,0,0,1,.06.37,1.28,1.28,0,0,1-.79.7,63.32,63.32,0,0,1-6.07,2.41c-1.66.57-3.95,1.43-5.07,2.87a13.15,13.15,0,0,0-1.82,3.25,33.66,33.66,0,0,0-1.49,5.89c-.59,3-1.2,6-1.9,8.94a17.08,17.08,0,0,1-1.48,4.39c-2.2,4-7.33,4.31-10.79,1.7a11.55,11.55,0,0,1-3.91-4.79C147.56,354.12,147.61,349.61,148,345.88Z" style="fill:#455a64"></path><path d="M167.6,349a.83.83,0,0,1-.21.16c-.31.15-.49,0-.67-.23a12.86,12.86,0,0,0-1.46-1.4,16.45,16.45,0,0,0-3.08-2,18.44,18.44,0,0,0-4.71-1.7l-.51-.09a.77.77,0,0,1-.65-.86.76.76,0,0,1,.86-.65,15.93,15.93,0,0,1,3.27.87,18.59,18.59,0,0,1,6.24,3.68c.48.43,1.17,1,1.14,1.69A.85.85,0,0,1,167.6,349Z" style="fill:#fafafa"></path><path d="M168.56,344.91c-.44.43-.92-.3-1.2-.61a12.87,12.87,0,0,0-1.43-1.33,16,16,0,0,0-3-1.88,17.46,17.46,0,0,0-4.19-1.44l-.18,0a.77.77,0,0,1-.64-.87.75.75,0,0,1,.87-.64,16.14,16.14,0,0,1,3.26.92,17.25,17.25,0,0,1,6,3.77,2,2,0,0,1,.79,1.35,1.06,1.06,0,0,1-.17.65A.52.52,0,0,1,168.56,344.91Z" style="fill:#fafafa"></path><path d="M169.83,341a.89.89,0,0,1-.31.15c-.33.06-.47-.29-.65-.51a8.42,8.42,0,0,0-.62-.72,13.22,13.22,0,0,0-1.34-1.25,16.89,16.89,0,0,0-2.83-1.83,17.8,17.8,0,0,0-3.73-1.45l-.06,0a.76.76,0,1,1,.34-1.49,17.31,17.31,0,0,1,3.28,1.17,17,17,0,0,1,5.74,4.13,2.41,2.41,0,0,1,.6.91.76.76,0,0,1,0,.47.86.86,0,0,1-.24.3A1.07,1.07,0,0,1,169.83,341Z" style="fill:#fafafa"></path><path d="M165,328.64a.93.93,0,0,1,.33-.07c.34,0,.39.4.5.66a8.29,8.29,0,0,0,.43.84,13.14,13.14,0,0,0,1,1.55,16.8,16.8,0,0,0,2.3,2.47,17.29,17.29,0,0,0,3.24,2.33l.06,0a.76.76,0,0,1-.69,1.36,18.85,18.85,0,0,1-7.44-7.37,2.3,2.3,0,0,1-.35-1,.65.65,0,0,1,.13-.45,1.17,1.17,0,0,1,.3-.24Z" style="fill:#fafafa"></path><path d="M147.9,347.29a22.85,22.85,0,0,0,1.36,10.79,11.55,11.55,0,0,0,3.91,4.79c3.46,2.61,8.59,2.31,10.79-1.7a17.08,17.08,0,0,0,1.48-4.39c.3-1.27.58-2.55.85-3.83C160.92,345.35,150.32,346.32,147.9,347.29Z" style="fill:#fafafa"></path><path d="M288.35,374.34c-1.53,3.56-3.59,8.13-2.41,13.14,1.92,8.13,5.59,16.36,7.15,18.52s-.15,3.53-4.67,3.77a13.15,13.15,0,0,1-12.06-6.88c-2.39-4.64-4-8.95-5.91-11.08s-1.45-5.44.28-8.82,3.45-22.12,3.45-22.12l18.42,3.53S289.88,370.78,288.35,374.34Z" style="fill:#c8856a"></path><path d="M267.71,390.94a8.13,8.13,0,0,0-.56,2.78c.07,1.22,1.89,3.7,3.14,5a10.58,10.58,0,0,1,2.89,6.92,18.74,18.74,0,0,0,5.14,11.17,26.9,26.9,0,0,0,14.33,7c6.65,1.17,8.51-2.31,8.51-2.31s1.6-3.34.25-4.46S267.71,390.94,267.71,390.94Z" style="fill:#263238"></path><path d="M272,375.21a35.62,35.62,0,0,1-3.05,9.06c-.84,1.75-2,4.56-1.25,6.67.9,3.22,4.53,5.5,5.76,9.9s2.6,12,10.17,16.67,14.71,4.32,17.08,2.55,1.79-4.46-2.4-9.21c-4.45-5.05-8.47-16.68-8.47-16.68-1-3.37-2-6.72-1.83-10.76l2.9-4.24c0-1.39-12-4.93-13.58-3.55l-1,5.85-.45-6Z" style="fill:#455a64"></path><path d="M279.07,413.62a11,11,0,0,1,9.31-6.64c7.31-.88,10.3,2.53,11.69,4.58,1.65,2.44,3.61,7,.76,8.72-3.08,1.87-6.91,1.89-13.21-.35S279.07,413.62,279.07,413.62Z" style="fill:#fafafa"></path><path d="M277.67,391.43a.77.77,0,0,0,.66-.09c1.06-.72,6.88-2.71,10.76.09.41-.42.24-1.07-.46-1.93-4.39-2.08-9.91-.22-11.18.64a.7.7,0,0,0-.17,1A.83.83,0,0,0,277.67,391.43Z" style="fill:#fafafa"></path><path d="M290.37,395.6a2.24,2.24,0,0,0-.67-2c-4.28-1.68-9.41.06-10.63.89a.69.69,0,0,0-.16,1,.79.79,0,0,0,1,.19C281,395,286.5,393.15,290.37,395.6Z" style="fill:#fafafa"></path><path d="M288.3,387.74a1.33,1.33,0,0,0-.22-2c-4.52-3-10.87-.9-12.25,0a.69.69,0,0,0-.17,1,.79.79,0,0,0,.38.28.76.76,0,0,0,.67-.09C277.85,386.18,284.48,383.94,288.3,387.74Z" style="fill:#fafafa"></path><path d="M294.58,405.11a4.19,4.19,0,0,0-1.26-2.53c-4.36-1.94-9.75-.13-11,.72a.7.7,0,0,0-.16,1,.81.81,0,0,0,.38.28.76.76,0,0,0,.67-.09C284.31,403.74,290.73,401.57,294.58,405.11Z" style="fill:#fafafa"></path><path d="M280.91,400.2a.74.74,0,0,0,.66-.09c1.05-.7,6.75-2.65,10.63,0a2.55,2.55,0,0,0-.88-2.09c-4.29-1.68-9.41.06-10.63.89a.69.69,0,0,0-.16,1A.75.75,0,0,0,280.91,400.2Z" style="fill:#fafafa"></path><path d="M195.27,315.7l34.95-6.4s-9.06-39.87-12.86-59.06c-3.07-15.48-4.69-24.22,4.84-38l43.92,7.53,14.48,2.47c1.56,7.89,1.73,8.37,4.28,14,10.54,21.12,20.56,40.77,28.41,60.94,3,7.77,2.46,10.1-2,22.91-6.19,18-11.29,27.18-19.37,45.72-4.46.46-14.74-.85-17.84-4.31,2.14-22.45,3.08-42.32,10.05-55.27-10.71-13.63-23.32-30.08-23.32-30.08.28,10.37,1.62,30.37.22,45.11-.88,9.25-6.77,15.35-16.86,15.32-14.05,0-49.35-2.9-49.35-2.9C192,331.56,192.13,320,195.27,315.7Z" style="fill:#455a64"></path><path d="M260.85,276.19c-.7-11-.8-20.93-.8-20.93s11.48-3.85,15-8.82c-.91,7.2-9.16,13.17-9.16,13.17l.07,17.82,10.85,19.4Z" style="opacity:0.2"></path><path d="M230.22,309.3s.89,7.71,4.63,12.38a19.12,19.12,0,0,1-5.81-6.26c-2.22-4-14.58-.89-24-1.49Z" style="opacity:0.2"></path><path d="M284.17,306.27c-2.95,5.47-4.81,12.2-6.15,19.83a86,86,0,0,1,3.87-8.28A42.19,42.19,0,0,1,287,310,36.91,36.91,0,0,0,284.17,306.27Z" style="opacity:0.2"></path></g><g id="freepik--Top--inject-40"><path d="M348.23,150.34c1.23-1.9,1.51-3.32,3.23-4.14a19.41,19.41,0,0,0,5.41-3.94c2.39-2.31,4.27-4.29,4.27-4.29s2.1-2.26,1.78-3.94a2,2,0,0,0-2-1.84,2.7,2.7,0,0,0,1.22-3.14,2.67,2.67,0,0,0-3-1.61s2.39-1.74,1.1-4a2.52,2.52,0,0,0-3.32-1.24,3,3,0,0,0,.35-4.23c-.94-1.34-2.73-1.76-7,1.29,0,0-2.4-.89-3.91-.26-.95.39-4.9,3.81-7.36,6.43-1.19,1.27-1.83,4.46-1.35,7.52.43,2.78.1,5.49-2.59,10.67Z" style="fill:#c8856a"></path><path d="M345.47,125.07a22,22,0,0,1,2.6,6.35,23.73,23.73,0,0,1,.18,8.69,14.85,14.85,0,0,0,1.13-7.61,2.07,2.07,0,0,0,1.15.3c-.92,1.28-1.57,2.63,0,3.8a2.52,2.52,0,0,0,2.48.48,2.15,2.15,0,0,0-.26,2.39,2,2,0,0,0,2.41,1.05,3.71,3.71,0,0,0,.53-.26.24.24,0,0,0,.08-.06s0,0,0-.06l-.3,0a2.27,2.27,0,0,1-2-.61,1.81,1.81,0,0,1,0-1.59,7.83,7.83,0,0,1,1.53-2.06.19.19,0,0,0,.05-.1c0-.09-.13-.1-.22-.08-.5.11-1,.35-1.45.49a2.05,2.05,0,0,1-1.91-.34c-1.13-.84-.4-2.43.29-3.33.23-.3.48-.58.69-.88,0-.05.06-.12,0-.14l0,0a2,2,0,0,0-.71.19,3.34,3.34,0,0,1-.77.19,1.71,1.71,0,0,1-1-.12c-.67-.34-.53-1.07-.4-1.69a5.85,5.85,0,0,1,1.4-2.7l.05-.07.2.18c2,1.88,4.31.27,4-.79s-.92-5.49-1.52-5.81a27.7,27.7,0,0,0-3.45-1.61l3.35,1.9s1.27,5.75.77,6.1a2,2,0,0,1-2.54-.06,16.86,16.86,0,0,1-2.79-2.94C348.33,125.1,345.47,125.07,345.47,125.07Zm1.91.18a2.21,2.21,0,0,0,1.32-.24s.42.5,1.95,2a9.67,9.67,0,0,0-1.21.79,2.29,2.29,0,0,1-.74.31.83.83,0,0,1-.22,0A19.35,19.35,0,0,0,347.38,125.25Z" style="fill:#af6152"></path><path d="M335,143.65s15.62,1.81,13.19,6.69-13.58,32.1-16.53,34.78l-13.15-14.55Z" style="fill:#c8856a"></path><path d="M267.6,144.54c6.85,1.45,7.71,1.62,11.9,4s8.73,5.6,10.95,6.9c8,4.66,27.42,14.73,27.42,14.73l12.22-18.45c2.22,4.35,8.08,8,13.28,10.12,0,0-5.75,15.36-13.36,27.42-2.4,3.81-5,4.34-10,3.34-4.42-.88-9-1.72-21.69-6.68-8.6-3.37-15-6.2-27.93-9.74C268.68,175.72,265.65,147.48,267.6,144.54Z" style="fill:#37474f"></path><g id="freepik--Head--inject-40"><path d="M241.33,136.09c-.48-3.16-6-5.81-11-10.21-6.87-6.12-11.43-17.73-2.94-27.4.75-14.15,16.73-19.08,30.32-17.11,8.16,1.19,16,5.83,19.58,13.34,2.56,5.42,3.2,12.42-.15,18,.18-1.78.13-4.43-.64-5.92a9.94,9.94,0,0,1-.95,2.73,3.41,3.41,0,0,1-2.21,1.74c-1,.18-1.61-.31-2.49-.5s-.88-.07-1.55.51l-2.41,2.14-5.66,5L249.33,129C248.88,129.41,241.36,136.24,241.33,136.09Z" style="fill:#263238"></path><path d="M237.73,128.09a4.89,4.89,0,0,1-4.32-1.36,8.54,8.54,0,0,1-2.59-9.16,3.72,3.72,0,0,1,5.48-2.09c1.74,1.13,2.32,3.25,3.81,2.87,1.26-.32.54-2,.54-3.06,7.38-3.43,6.78-10.42,6.15-15.62,1.52-3.44,6.72-6.18,12.65-2.76,1-2,1.42-3.06,4-3.75,3.65-1,6.39,1.72,7.72,4.16,2.35,4.32,2.86,9.72,3.32,14.52.89,9.18.94,16.06-2.58,20.26-2.16,2.58-6.52,3.16-10.95,3.33l-1.07,7.15s2.81,6.55-.24,10.21a14.83,14.83,0,0,1-11.17-1.39c-8.47-4.77-8.41-12-8.41-12l.54-13.86A3.55,3.55,0,0,1,237.73,128.09Z" style="fill:#c8856a"></path><path d="M256.68,110.8c.5,1.06-.86.44-1.92,1s-1.42,2-1.92,1a2.22,2.22,0,0,1,1-2.9A2.08,2.08,0,0,1,256.68,110.8Z" style="fill:#263238"></path><path d="M270.48,109.65c.08,1.17-1,.08-2.14.19s-2.07,1.37-2.15.2a2.22,2.22,0,0,1,2-2.32A2.07,2.07,0,0,1,270.48,109.65Z" style="fill:#263238"></path><path d="M271.72,104.29l-4.65-2.14a2.46,2.46,0,0,1,3.32-1.31A2.7,2.7,0,0,1,271.72,104.29Z" style="fill:#263238"></path><path d="M252.57,104.21,249.13,108a2.46,2.46,0,0,1-.25-3.56A2.7,2.7,0,0,1,252.57,104.21Z" style="fill:#263238"></path><path d="M256.07,121.2l8,2.68a4.13,4.13,0,0,1-5.61,2.88C256.26,125.93,255.47,123.66,256.07,121.2Z" style="fill:#af6152"></path><path d="M258.44,126.76a4.51,4.51,0,0,0,1.85.29,4.05,4.05,0,0,0-4.11-3.48l-.23,0A3.91,3.91,0,0,0,258.44,126.76Z" style="fill:#ffa8a7"></path><polygon points="261.12 108 263.34 119.93 269.5 116.96 261.12 108" style="fill:#af6152"></polygon><path d="M261,135.43c-4.69,0-14.19-.84-17.88-6.44,0,0,1.8,4.8,5.06,6.6s12.43,2.5,12.43,2.5Z" style="fill:#af6152"></path></g><path d="M273.18,146c3.47.86,1.31,6.37,8,16.15l-20.83-17.7-.49-1.84S268.36,144.77,273.18,146Z" style="fill:#37474f"></path><path d="M275.1,155.91c-8.85-7.36-14.66-11.37-14.66-11.37,1.15,4.67.06,7.42-2.26,8.15s-10.47-1-15.22-5.34l-25.57,18.37c1.53,4.51,4.58,12.36,5.42,17.17s2.58,14.18,2,19-7.88,14.5-10.26,27.59c0,0,15,13,42.57,11.56,22-1.12,25.71-10.35,25.71-10.35s-2.56-10.71-4.41-18.47c1.61-11.85,3.13-20.79,3.13-20.79s8-9,5.36-18.78C284.62,163.88,278.75,158.94,275.1,155.91Z" style="fill:#BA68C8"></path><path d="M232.31,138.5c5.08,2.75,7.77.89,7.77.89s-.36,6.88,4.38,9.88c0,0-10,22.33-17.82,27.9S232.31,138.5,232.31,138.5Z" style="fill:#37474f"></path><path d="M240.08,139.39c.38,3,3.47,7.07,6.2,8.94,5.79,4,10.24,4.7,12.81,3.15s1.14-6.53.81-8.9l1.39.36c1.13,2.47,3,9.58-1,11.36-5.54,2.46-15.52-1.88-19.37-6.77s-4-7.55-4-7.55a8,8,0,0,0,1.67-.06A9.45,9.45,0,0,0,240.08,139.39Z" style="fill:#263238"></path><path d="M173.62,79.37c-.68-2.17-.57-3.61-2-4.85a19.51,19.51,0,0,1-4.17-5.24c-1.69-2.85-3-5.26-3-5.26s-1.42-2.74-.66-4.27a2,2,0,0,1,2.44-1.24,2.72,2.72,0,0,1-.35-3.36,2.68,2.68,0,0,1,3.3-.76s-1.85-2.3,0-4.11A2.53,2.53,0,0,1,172.7,50a3,3,0,0,1,.78-4.18c1.26-1,3.1-1,6.43,3.11,0,0,2.55-.21,3.83.79.82.63,3.72,5,5.4,8.15.81,1.54.58,4.78-.69,7.61-1.15,2.56-1.56,5.26-.33,11Z" style="fill:#c8856a"></path><path d="M179.74,54a16.61,16.61,0,0,1-3.46,2.09,2.06,2.06,0,0,1-2.47-.61c-.39-.48,2.36-5.68,2.36-5.68l3.74-1a27.07,27.07,0,0,0-3.75.64c-.67.15-2.44,4.25-3,5.2s1.24,3.11,3.66,1.83l.24-.13,0,.09a5.78,5.78,0,0,1,.63,3c0,.63-.09,1.38-.84,1.52a1.63,1.63,0,0,1-1-.15,2.84,2.84,0,0,1-.7-.39,1.83,1.83,0,0,0-.62-.36h-.05s0,.09,0,.14c.13.35.29.69.44,1,.43,1,.71,2.78-.61,3.29a2.1,2.1,0,0,1-1.93-.17c-.43-.27-.81-.63-1.27-.87-.08,0-.21-.06-.23,0s0,.07,0,.1a7.61,7.61,0,0,1,.93,2.39,1.85,1.85,0,0,1-.39,1.55,2.27,2.27,0,0,1-2.09.05l-.28-.11s0,0,0,0,0,.06.06.09a4.19,4.19,0,0,0,.45.39,2,2,0,0,0,2.59-.38,2.17,2.17,0,0,0,.4-2.37,2.48,2.48,0,0,0,2.51.19c1.85-.7,1.57-2.18,1-3.65a2.15,2.15,0,0,0,1.18,0,15,15,0,0,0-.93,7.64,23.92,23.92,0,0,1,2.48-8.34,21.76,21.76,0,0,1,4.2-5.42S180.22,55,179.74,54Zm-.45,3.79a.55.55,0,0,1-.22-.06,2.28,2.28,0,0,1-.62-.5,12.52,12.52,0,0,0-1-1.08c1.85-1,2.39-1.37,2.39-1.37a2.17,2.17,0,0,0,1.21.58A19.52,19.52,0,0,0,179.29,57.83Z" style="fill:#af6152"></path><path d="M188.12,76.41s-15.54-2.4-14.5,3,4.86,39.43,7,42.8l17.25-11Z" style="fill:#c8856a"></path><path d="M232.31,138.5a93.08,93.08,0,0,0-10.74-6.35c-4.48-2.36-21.31-14.54-21.31-14.54L191.65,89c-4.56,3.46-9.45,6.9-16,7.51,0,0,3.1,21,4.44,28,.83,4.43,1.67,5.46,4.37,8.37,4.79,5.17,13.39,13.94,20.43,21.37,6.35,6.7,12.29,13.47,15.3,19.3.81,1.56,2.69,5,5,4.43,3.51-.89,7.22-10.33,8.91-15.79C236.84,153.24,232.4,142,232.31,138.5Z" style="fill:#37474f"></path></g><path d="M138.43,349.64c-1.39,2.79-1,6.37-.05,9.24a17,17,0,0,0,2.13,4.13,11.74,11.74,0,0,0,1.66,1.86,4.59,4.59,0,0,0,1.85,1.2c.39.09.42-.54.26-.76-1-1.32-2.13-2.47-3-3.86a14.45,14.45,0,0,1-1.52-3.26,20.18,20.18,0,0,1-.65-8.11c0-.34-.41-1-.66-.44Z" style="fill:#BA68C8"></path><path d="M134.58,353.68c-1.38,1.66-1.36,4.1-.94,6.11a9.83,9.83,0,0,0,1,2.83,8.53,8.53,0,0,0,.94,1.37,2.71,2.71,0,0,0,1.46,1.06c.28.05.31-.48.24-.63-.39-.85-1-1.57-1.45-2.4a9.19,9.19,0,0,1-.82-2,13.35,13.35,0,0,1,0-5.8c0-.23-.23-.85-.5-.51Z" style="fill:#BA68C8"></path><path d="M173.26,124.33c-.88,3.12.15,6.67,1.72,9.41a16.69,16.69,0,0,0,2.87,3.66c.94.9,2.32,2.06,3.68,2.13.4,0,.29-.66.13-.83-1-1-2.21-1.83-3.22-2.84a14,14,0,0,1-2.28-3,19,19,0,0,1-2.2-8.33c0-.44-.56-.71-.7-.19Z" style="fill:#BA68C8"></path><path d="M170.14,128.94c-1,1.84-.64,4.23.11,6.11a10.26,10.26,0,0,0,1.64,2.85A8.77,8.77,0,0,0,173,139a2.32,2.32,0,0,0,1.42.66c.31,0,.33-.52.19-.72-.58-.84-1.4-1.5-2-2.32a9,9,0,0,1-1.23-2.18,14.67,14.67,0,0,1-.69-5.23c0-.29-.36-.68-.56-.31Z" style="fill:#BA68C8"></path><path d="M366.43,120.79a13.33,13.33,0,0,0-4.61-8.41,16.5,16.5,0,0,0-3.61-2.47c-1.19-.59-2.87-1.35-4.21-.9-.27.09-.27.67-.05.81,1.2.74,2.63,1.09,3.89,1.72a14.24,14.24,0,0,1,3.38,2.33,18,18,0,0,1,4.52,7.16c.22.58.73.3.69-.24Z" style="fill:#BA68C8"></path><path d="M368,115.48a5.22,5.22,0,0,0-.13-2.08,7.59,7.59,0,0,0-.49-1.41,10.39,10.39,0,0,0-1.57-2.46,9.64,9.64,0,0,0-2.21-2,8.43,8.43,0,0,0-1.39-.74,2,2,0,0,0-1.53-.14.52.52,0,0,0-.06.77c.77.66,1.77,1,2.6,1.58a9.7,9.7,0,0,1,2,1.77,12.53,12.53,0,0,1,2.2,4.72c.13.43.56.41.62,0Z" style="fill:#BA68C8"></path><path d="M323.08,316.78c2.22-1.89,3.28-5.16,3.51-8,.26-3.1-.24-7.12-2.63-9.35-.29-.28-.46.31-.41.51.37,1.53.91,3,1.2,4.58a14.6,14.6,0,0,1,.18,3.79,16.72,16.72,0,0,1-.78,4,39.36,39.36,0,0,1-1.61,3.7c-.16.33.09,1.17.54.79Z" style="fill:#BA68C8"></path><path d="M328.18,314.51c1.85-1,2.77-3.18,3.15-5.15a9.51,9.51,0,0,0,.12-3,5.32,5.32,0,0,0-1.39-3.3c-.25-.21-.4.17-.41.37a26.59,26.59,0,0,0,.38,3.17,9.6,9.6,0,0,1-.19,2.62,17.17,17.17,0,0,1-2,4.52c-.11.21,0,1,.37.78Z" style="fill:#BA68C8"></path></g></g></svg>